# xmcd
#
# Track frame offsets:
#	150
#	12084
#	20683
#	37600
#	48171
#	68357
#	79604
#	92937
#	110626
#	122423
#	144808
#
# Disc length: 2133 seconds
#
# Revision: 0
# Processed by: cddbd v1.4PL0 Copyright (c) Steve Scherf et al.
# Submitted via: dBpowerAMP V4.0
#
DISCID=7608530b
DTITLE=Middle Cross - Tell Somebody
DYEAR=1999
DGENRE=Gospel
TTITLE0=Go and Tell Somebody
TTITLE1=When We All Get To Heaven
TTITLE2=Hand In Hand
TTITLE3=Some Dawning
TTITLE4=At The Cross
TTITLE5=He Set Me Free
TTITLE6=We'll Soon Be Done
TTITLE7=Without Him
TTITLE8=There's Power In The Blood
TTITLE9=Farther Along
TTITLE10=How Beautiful Heaven Must Be
EXTD=
EXTT0=
EXTT1=
EXTT2=
EXTT3=
EXTT4=
EXTT5=
EXTT6=
EXTT7=
EXTT8=
EXTT9=
EXTT10=
PLAYORDER=
